<svg xmlns="http://www.w3.org/2000/svg" style="display: none;">
    <symbol id="icon-instagram" viewBox="0 0 50 50">
        <path d="M25 10c-6.6 0-12 5.4-12 12s5.4 12 12 12 12-5.4 12-12-5.4-12-12-12zm0 21c-5 0-9-4-9-9s4-9 9-9 9 4 9 9-4 9-9 9z" fill="currentColor"/>
    </symbol>
    <symbol id="icon-facebook" viewBox="0 0 50 50">
        <path d="M25 10c-6.6 0-12 5.4-12 12s5.4 12 12 12 12-5.4 12-12-5.4-12-12-12zm2 13h-3v7h-3v-7h-2v-3h2v-2c0-1.7 1-4 4-4h3v3h-2c-0.5 0-1 0.2-1 1v2h3l-0.5 3z" fill="currentColor"/>
    </symbol>
    <symbol id="icon-youtube" viewBox="0 0 50 50">
        <path d="M35 15H15c-1.1 0-2 0.9-2 2v16c0 1.1 0.9 2 2 2h20c1.1 0 2-0.9 2-2V17c0-1.1-0.9-2-2-2zM21 30V20l9 5-9 5z" fill="currentColor"/>
    </symbol>
    <symbol id="icon-phone" viewBox="0 0 24 24">
        <path d="M6.62 10.79c1.44 2.83 3.76 5.15 6.59 6.59l2.2-2.2c0.27-0.27 0.67-0.36 1.02-0.24 1.12 0.37 2.33 0.57 3.57 0.57 0.55 0 1 0.45 1 1v3.5c0 0.55-0.45 1-1 1-9.39 0-17-7.61-17-17 0-0.55 0.45-1 1-1h3.5c0.55 0 1 0.45 1 1 0 1.24 0.2 2.45 0.57 3.57 0.12 0.35 0.03 0.75-0.24 1.02l-2.2 2.2z" fill="currentColor"/>
    </symbol>
    <symbol id="icon-map" viewBox="0 0 24 24">
        <path d="M12 2C8.13 2 5 5.13 5 9c0 5.25 7 13 7 13s7-7.75 7-13c0-3.87-3.13-7-7-7zm0 9.5c-1.38 0-2.5-1.12-2.5-2.5s1.12-2.5 2.5-2.5 2.5 1.12 2.5 2.5-1.12 2.5-2.5 2.5z" fill="currentColor"/>
    </symbol>
    <symbol id="icon-shopping-cart" viewBox="0 0 24 24">
        <path d="M7 18c-1.1 0-1.99 0.9-1.99 2s0.89 2 1.99 2 2-0.9 2-2-0.9-2-2-2zM1 2v2h2l3.6 7.59-1.35 2.45c-0.16 0.28-0.25 0.61-0.25 0.96 0 1.1 0.9 2 2 2h12v-2H7.42c-0.14 0-0.25-0.11-0.25-0.25l0.03-0.12 0.9-1.63h7.45c0.75 0 1.41-0.41 1.75-1.03l3.58-6.49c0.08-0.14 0.12-0.3 0.12-0.48 0-0.55-0.45-1-1-1H5.21l-0.94-2H1z" fill="currentColor"/>
    </symbol>
</svg>